<svg
    id="visual"
    viewBox="0 0 900 300"
    width="900"
    height="300"
    xmlns="http://www.w3.org/2000/svg"
    xmlns:xlink="http://www.w3.org/1999/xlink"
    version="1.1"
    preserveAspectRatio="none"
>
<path d="M0 110L12.5 94.2C25 78.3 50 46.7 75 31.7C100 16.7 125 18.3 150 25.3C175 32.3 200 44.7 225 43.8C250 43 275 29 300 19.2C325 9.3 350 3.7 375 8.8C400 14 425 30 450 34.5C475 39 500 32 525 30.7C550 29.3 575 33.7 600 45.2C625 56.7 650 75.3 675 81.7C700 88 725 82 750 72.8C775 63.7 800 51.3 825 55.5C850 59.7 875 80.3 887.5 90.7L900 101L900 301L887.5 301C875 301 850 301 825 301C800 301 775 301 750 301C725 301 700 301 675 301C650 301 625 301 600 301C575 301 550 301 525 301C500 301 475 301 450 301C425 301 400 301 375 301C350 301 325 301 300 301C275 301 250 301 225 301C200 301 175 301 150 301C125 301 100 301 75 301C50 301 25 301 12.5 301L0 301Z" fill="#537acf"/>
<path d="M0 99L12.5 89.7C25 80.3 50 61.7 75 67.7C100 73.7 125 104.3 150 120.5C175 136.7 200 138.3 225 138C250 137.7 275 135.3 300 136.8C325 138.3 350 143.7 375 129.5C400 115.3 425 81.7 450 77.3C475 73 500 98 525 108.5C550 119 575 115 600 102.2C625 89.3 650 67.7 675 63C700 58.3 725 70.7 750 81.5C775 92.3 800 101.7 825 94.8C850 88 875 65 887.5 53.5L900 42L900 301L887.5 301C875 301 850 301 825 301C800 301 775 301 750 301C725 301 700 301 675 301C650 301 625 301 600 301C575 301 550 301 525 301C500 301 475 301 450 301C425 301 400 301 375 301C350 301 325 301 300 301C275 301 250 301 225 301C200 301 175 301 150 301C125 301 100 301 75 301C50 301 25 301 12.5 301L0 301Z" fill="#476ab4"/>
<path d="M0 147L12.5 139.5C25 132 50 117 75 123.3C100 129.7 125 157.3 150 163.8C175 170.3 200 155.7 225 141.3C250 127 275 113 300 116.2C325 119.3 350 139.7 375 151.2C400 162.7 425 165.3 450 161.5C475 157.7 500 147.3 525 137.7C550 128 575 119 600 125.5C625 132 650 154 675 156.5C700 159 725 142 750 144.7C775 147.3 800 169.7 825 169.8C850 170 875 148 887.5 137L900 126L900 301L887.5 301C875 301 850 301 825 301C800 301 775 301 750 301C725 301 700 301 675 301C650 301 625 301 600 301C575 301 550 301 525 301C500 301 475 301 450 301C425 301 400 301 375 301C350 301 325 301 300 301C275 301 250 301 225 301C200 301 175 301 150 301C125 301 100 301 75 301C50 301 25 301 12.5 301L0 301Z" fill="#3c5a9a"/>
<path d="M0 163L12.5 162C25 161 50 159 75 158.5C100 158 125 159 150 166.2C175 173.3 200 186.7 225 186C250 185.3 275 170.7 300 167.8C325 165 350 174 375 180C400 186 425 189 450 196.3C475 203.7 500 215.3 525 215.7C550 216 575 205 600 202.2C625 199.3 650 204.7 675 197.2C700 189.7 725 169.3 750 161C775 152.7 800 156.3 825 166.2C850 176 875 192 887.5 200L900 208L900 301L887.5 301C875 301 850 301 825 301C800 301 775 301 750 301C725 301 700 301 675 301C650 301 625 301 600 301C575 301 550 301 525 301C500 301 475 301 450 301C425 301 400 301 375 301C350 301 325 301 300 301C275 301 250 301 225 301C200 301 175 301 150 301C125 301 100 301 75 301C50 301 25 301 12.5 301L0 301Z" fill="#314a81"/>
<path d="M0 231L12.5 228.3C25 225.7 50 220.3 75 217C100 213.7 125 212.3 150 216.7C175 221 200 231 225 240.5C250 250 275 259 300 263.7C325 268.3 350 268.7 375 262.5C400 256.3 425 243.7 450 241.7C475 239.7 500 248.3 525 254.5C550 260.7 575 264.3 600 267.3C625 270.3 650 272.7 675 265.3C700 258 725 241 750 231.2C775 221.3 800 218.7 825 215.3C850 212 875 208 887.5 206L900 204L900 301L887.5 301C875 301 850 301 825 301C800 301 775 301 750 301C725 301 700 301 675 301C650 301 625 301 600 301C575 301 550 301 525 301C500 301 475 301 450 301C425 301 400 301 375 301C350 301 325 301 300 301C275 301 250 301 225 301C200 301 175 301 150 301C125 301 100 301 75 301C50 301 25 301 12.5 301L0 301Z" fill="#263b69"/>
</svg>
