<svg
    id="visual"
    viewBox="0 0 900 1100"
    width="900"
    height="1100"
    xmlns="http://www.w3.org/2000/svg"
    xmlns:xlink="http://www.w3.org/1999/xlink"
    version="1.1"
>
  <rect x="0" y="0" width="900" height="1100" fill="#263B69" />
  <defs>
    <linearGradient id="grad1_0" x1="33.3%" y1="0%" x2="100%" y2="100%">
      <stop offset="20%" stop-color="#537acf" stop-opacity="1" />
      <stop offset="80%" stop-color="#537acf" stop-opacity="1" />
    </linearGradient>
  </defs>
  <defs>
    <linearGradient id="grad1_1" x1="33.3%" y1="0%" x2="100%" y2="100%">
      <stop offset="20%" stop-color="#537acf" stop-opacity="1" />
      <stop offset="80%" stop-color="#263b69" stop-opacity="1" />
    </linearGradient>
  </defs>
  <defs>
    <linearGradient id="grad2_0" x1="0%" y1="0%" x2="66.7%" y2="100%">
      <stop offset="20%" stop-color="#537acf" stop-opacity="1" />
      <stop offset="80%" stop-color="#537acf" stop-opacity="1" />
    </linearGradient>
  </defs>
  <defs>
    <linearGradient id="grad2_1" x1="0%" y1="0%" x2="66.7%" y2="100%">
      <stop offset="20%" stop-color="#263b69" stop-opacity="1" />
      <stop offset="80%" stop-color="#537acf" stop-opacity="1" />
    </linearGradient>
  </defs>
  <g transform="translate(900, 0)">
    <path
            d="M0 351.5C-39.2 352.1 -78.5 352.7 -108.6 334.3C-138.8 316 -159.9 278.8 -182.8 251.6C-205.7 224.4 -230.5 207.1 -254 184.6C-277.5 162 -299.7 134.2 -315.8 102.6C-331.8 71 -341.7 35.5 -351.5 0L0 0Z"
            fill="#3c5a9a"
        />
    <path
            d="M0 175.8C-19.6 176 -39.2 176.3 -54.3 167.2C-69.4 158 -79.9 139.4 -91.4 125.8C-102.9 112.2 -115.3 103.6 -127 92.3C-138.8 81 -149.9 67.1 -157.9 51.3C-165.9 35.5 -170.8 17.7 -175.8 0L0 0Z"
            fill="#537acf"
        />
  </g>
  <g transform="translate(0, 600)">
    <path
            d="M0 -351.5
     C37.4 -349.8 74.8 -348.1 108.6 -334.3
     C142.5 -320.6 172.7 -294.7 193.4 -266.2
     C214.1 -237.6 225.2 -206.4 249.2 -181
     C273.1 -155.7 309.9 -136.1 329.1 -106.9
     C348.3 -77.7 349.9 -38.9 351.5 0
     C351.5 0 351.5 200 200 200
     C200 200 130 200 100 300
     C100 300 100 350 0 370
     Z"
            fill="#3c5a9a"
        />
    <path
            d="M0 -175.8C18.7 -174.9 37.4 -174.1 54.3 -167.2C71.2 -160.3 86.3 -147.4 96.7 -133.1C107 -118.8 112.6 -103.2 124.6 -90.5C136.6 -77.8 154.9 -68.1 164.5 -53.5C174.1 -38.9 175 -19.4 175.8 0L0 0Z"
            fill="#537acf"
        />
  </g>
</svg>
